<svg width="75" height="50" viewBox="0 0 75 50" fill="none" xmlns="http://www.w3.org/2000/svg">
<path d="M8.24219 2.78906V17.6719C8.24219 18.3229 8.58073 18.6615 9.25781 18.6875H22.9297C23.4245 18.6615 23.8542 18.4531 24.2188 18.0625C24.5833 17.6458 24.8438 17.1771 25 16.6562C25.1823 16.1094 25.2734 15.5625 25.2734 15.0156C25.2734 14.4948 25.1823 13.974 25 13.4531C24.8438 12.9062 24.5833 12.4375 24.2188 12.0469C23.8542 11.6302 23.4245 11.4219 22.9297 11.4219H12.9297C12.2005 11.4219 11.5755 11.1745 11.0547 10.6797C10.5599 10.1589 10.3125 9.53385 10.3125 8.80469C10.3125 8.07552 10.5729 7.46354 11.0938 6.96875C11.5885 6.44792 12.2005 6.1875 12.9297 6.1875H22.7734C24.5964 6.21354 26.0938 6.73438 27.2656 7.75C28.4635 8.73958 29.3099 9.8724 29.8047 11.1484C30.3255 12.3984 30.5859 13.7005 30.5859 15.0547C30.5859 16.3568 30.3255 17.6458 29.8047 18.9219C29.2839 20.1719 28.4375 21.3047 27.2656 22.3203C26.0938 23.3099 24.362 23.8438 22.0703 23.9219H5.66406C4.9349 23.9219 4.3099 23.6875 3.78906 23.2188C3.26823 22.724 2.99479 22.112 2.96875 21.3828V2.78906C2.96875 2.0599 3.22917 1.46094 3.75 0.992188C4.29688 0.497396 4.9349 0.25 5.66406 0.25C7.22656 0.380208 8.08594 1.22656 8.24219 2.78906ZM56.6406 21.8516V12.4375C56.6406 11.7865 56.3021 11.4479 55.625 11.4219H41.9531C41.4583 11.4479 41.0286 11.6693 40.6641 12.0859C40.2995 12.4766 40.026 12.9453 39.8438 13.4922C39.6875 14.013 39.6094 14.5469 39.6094 15.0938C39.6094 15.6146 39.6875 16.1484 39.8438 16.6953C40.026 17.2161 40.2995 17.6849 40.6641 18.1016C41.0286 18.4922 41.4583 18.6875 41.9531 18.6875H51.9531C52.6823 18.6875 53.2943 18.9479 53.7891 19.4688C54.3099 19.9635 54.5703 20.5755 54.5703 21.3047C54.5703 22.0339 54.3099 22.6458 53.7891 23.1406C53.2943 23.6615 52.6823 23.9219 51.9531 23.9219H42.1094C40.2865 23.8958 38.776 23.388 37.5781 22.3984C36.4062 21.3828 35.5599 20.25 35.0391 19C34.5443 17.724 34.2969 16.4089 34.2969 15.0547C34.2969 13.7526 34.5573 12.4766 35.0781 11.2266C35.599 9.95052 36.4453 8.81771 37.6172 7.82812C38.7891 6.8125 40.5208 6.26562 42.8125 6.1875H59.2188C59.9479 6.1875 60.5729 6.4349 61.0938 6.92969C61.6146 7.39844 61.888 7.9974 61.9141 8.72656V21.8516C61.9141 22.5807 61.6406 23.1927 61.0938 23.6875C60.5729 24.1562 59.9479 24.3906 59.2188 24.3906C57.6562 24.2604 56.7969 23.4141 56.6406 21.8516ZM24.6289 46.8516V37.4375C24.6289 36.7865 24.2904 36.4479 23.6133 36.4219H9.94141C9.44661 36.4479 9.01693 36.6693 8.65234 37.0859C8.28776 37.4766 8.01432 37.9453 7.83203 38.4922C7.67578 39.013 7.59766 39.5469 7.59766 40.0938C7.59766 40.6146 7.67578 41.1484 7.83203 41.6953C8.01432 42.2161 8.28776 42.6849 8.65234 43.1016C9.01693 43.4922 9.44661 43.6875 9.94141 43.6875H19.9414C20.6706 43.6875 21.2826 43.9479 21.7773 44.4688C22.2982 44.9635 22.5586 45.5755 22.5586 46.3047C22.5586 47.0339 22.2982 47.6458 21.7773 48.1406C21.2826 48.6615 20.6706 48.9219 19.9414 48.9219H10.0977C8.27474 48.8958 6.76432 48.388 5.56641 47.3984C4.39453 46.3828 3.54818 45.25 3.02734 44C2.53255 42.724 2.28516 41.4089 2.28516 40.0547C2.28516 38.7526 2.54557 37.4766 3.06641 36.2266C3.58724 34.9505 4.43359 33.8177 5.60547 32.8281C6.77734 31.8125 8.50911 31.2656 10.8008 31.1875H27.207C27.9362 31.1875 28.5612 31.4349 29.082 31.9297C29.6029 32.3984 29.8763 32.9974 29.9023 33.7266V46.8516C29.9023 47.5807 29.6289 48.1927 29.082 48.6875C28.5612 49.1562 27.9362 49.3906 27.207 49.3906C25.6445 49.2604 24.7852 48.4141 24.6289 46.8516ZM56.6992 27.7891C56.8555 26.2266 57.7148 25.3802 59.2773 25.25C60.0065 25.25 60.6315 25.4974 61.1523 25.9922C61.6992 26.4609 61.9727 27.0599 61.9727 27.7891V46.3828C61.9466 47.112 61.6732 47.724 61.1523 48.2188C60.6315 48.6875 60.0065 48.9219 59.2773 48.9219H42.8711C40.5794 48.8438 38.8477 48.3099 37.6758 47.3203C36.5039 46.3047 35.6576 45.1719 35.1367 43.9219C34.6159 42.6458 34.3555 41.3568 34.3555 40.0547C34.3555 38.7005 34.6029 37.3984 35.0977 36.1484C35.6185 34.8724 36.4648 33.7396 37.6367 32.75C38.8346 31.7344 40.3451 31.2135 42.168 31.1875H52.0117C52.7409 31.1875 53.3529 31.4479 53.8477 31.9688C54.3685 32.4635 54.6289 33.0755 54.6289 33.8047C54.6289 34.5339 54.3685 35.1589 53.8477 35.6797C53.3529 36.1745 52.7409 36.4219 52.0117 36.4219H42.0117C41.5169 36.4219 41.0872 36.6302 40.7227 37.0469C40.3581 37.4375 40.0846 37.9062 39.9023 38.4531C39.7461 38.974 39.668 39.4948 39.668 40.0156C39.668 40.5625 39.7461 41.1094 39.9023 41.6562C40.0846 42.1771 40.3581 42.6458 40.7227 43.0625C41.0872 43.4531 41.5169 43.6615 42.0117 43.6875H55.6836C56.3607 43.6615 56.6992 43.3229 56.6992 42.6719V27.7891Z" fill="black"/>
<path d="M75 44C75 46.7614 72.7614 49 70 49C67.2386 49 65 46.7614 65 44C65 41.2386 67.2386 39 70 39C72.7614 39 75 41.2386 75 44Z" fill="url(#paint0_linear_31_8)"/>
<defs>
<linearGradient id="paint0_linear_31_8" x1="65" y1="44.0182" x2="74.976" y2="44.0182" gradientUnits="userSpaceOnUse">
<stop stop-color="#00D7FC"/>
<stop offset="1" stop-color="#01E7A5"/>
</linearGradient>
</defs>
</svg>
